<svg width="7" height="23" viewBox="0 0 7 23" fill="none" xmlns="http://www.w3.org/2000/svg">
<path d="M6.03125 19.9375C6.03125 20.6088 5.76457 21.2527 5.28986 21.7274C4.81516 22.2021 4.17133 22.4688 3.5 22.4688C2.82867 22.4688 2.18484 22.2021 1.71014 21.7274C1.23543 21.2527 0.96875 20.6088 0.96875 19.9375C0.96875 19.2662 1.23543 18.6223 1.71014 18.1476C2.18484 17.6729 2.82867 17.4062 3.5 17.4062C4.17133 17.4062 4.81516 17.6729 5.28986 18.1476C5.76457 18.6223 6.03125 19.2662 6.03125 19.9375ZM6.03125 11.5C6.03125 12.1713 5.76457 12.8152 5.28986 13.2899C4.81516 13.7646 4.17133 14.0312 3.5 14.0312C2.82867 14.0312 2.18484 13.7646 1.71014 13.2899C1.23543 12.8152 0.96875 12.1713 0.96875 11.5C0.96875 10.8287 1.23543 10.1848 1.71014 9.71014C2.18484 9.23543 2.82867 8.96875 3.5 8.96875C4.17133 8.96875 4.81516 9.23543 5.28986 9.71014C5.76457 10.1848 6.03125 10.8287 6.03125 11.5ZM6.03125 3.0625C6.03125 3.73383 5.76457 4.37766 5.28986 4.85236C4.81516 5.32707 4.17133 5.59375 3.5 5.59375C2.82867 5.59375 2.18484 5.32707 1.71014 4.85236C1.23543 4.37766 0.96875 3.73383 0.96875 3.0625C0.96875 2.39117 1.23543 1.74734 1.71014 1.27264C2.18484 0.797935 2.82867 0.53125 3.5 0.53125C4.17133 0.53125 4.81516 0.797935 5.28986 1.27264C5.76457 1.74734 6.03125 2.39117 6.03125 3.0625Z" fill="#3A312E"/>
</svg>
